<?xml version="1.0" standalone="no"?>
<!DOCTYPE svg PUBLIC "-//W3C//DTD SVG 1.1//EN" "http://www.w3.org/Graphics/SVG/1.1/DTD/svg11.dtd">
<svg xmlns="http://www.w3.org/2000/svg" id="Layer_1" viewBox="0 0 612 202.83" width="612" height="202.8300018310547"><defs><style>.cls-1{fill:#fff;}.cls-2{fill:#69bd45;}</style></defs><g><path class="cls-1" d="m344.87,70.98c-2.51,1.09-5.38,1.64-8.61,1.64-2.76,0-5.28-.45-7.55-1.36-2.27-.91-4.22-2.17-5.86-3.79-1.63-1.62-2.9-3.53-3.81-5.76-.91-2.22-1.36-4.65-1.36-7.27v-.1c0-2.53.46-4.89,1.39-7.09.93-2.2,2.21-4.14,3.86-5.81,1.65-1.67,3.6-2.98,5.86-3.94,2.25-.96,4.73-1.44,7.42-1.44,1.58,0,3.02.11,4.32.33,1.29.22,2.5.53,3.61.93,1.11.4,2.15.91,3.13,1.51.98.61,1.92,1.3,2.83,2.07l-4.9,5.91c-.67-.57-1.35-1.08-2.02-1.52-.67-.44-1.37-.81-2.1-1.11s-1.51-.54-2.35-.71c-.84-.17-1.77-.25-2.78-.25-1.41,0-2.74.3-3.96.89-1.23.59-2.31,1.38-3.23,2.38-.93,1-1.65,2.16-2.17,3.49-.52,1.33-.78,2.76-.78,4.28v.1c0,1.62.26,3.11.78,4.48.52,1.37,1.26,2.56,2.22,3.57.96,1.01,2.09,1.8,3.38,2.35,1.3.56,2.73.83,4.32.83,2.89,0,5.33-.71,7.32-2.14v-5.08h-7.83v-6.72h15.35v15.35c-1.82,1.55-3.98,2.87-6.49,3.96Z"/><path class="cls-1" d="m373.88,72.01v-2.93c-.94,1.04-2.07,1.88-3.38,2.5-1.31.62-2.91.93-4.8.93-1.28,0-2.48-.18-3.61-.53s-2.11-.88-2.95-1.59c-.84-.71-1.51-1.57-2-2.6-.49-1.03-.73-2.21-.73-3.56v-.1c0-1.48.27-2.76.81-3.84.54-1.08,1.29-1.97,2.25-2.68.96-.71,2.1-1.24,3.43-1.59,1.33-.35,2.8-.53,4.42-.53,1.38,0,2.58.1,3.61.3,1.03.2,2.03.47,3,.81v-.46c0-1.62-.49-2.84-1.46-3.69-.98-.84-2.42-1.26-4.34-1.26-1.48,0-2.79.13-3.91.38-1.13.25-2.31.61-3.56,1.08l-1.92-5.86c1.48-.64,3.03-1.16,4.65-1.57,1.62-.4,3.57-.61,5.86-.61,4.21,0,7.27,1.03,9.19,3.08,1.92,2.05,2.88,4.92,2.88,8.58v15.7h-7.42Zm.15-10.91c-.67-.3-1.42-.55-2.25-.73-.83-.18-1.71-.28-2.65-.28-1.65,0-2.95.32-3.89.96s-1.41,1.57-1.41,2.78v.1c0,1.04.39,1.85,1.16,2.42.77.57,1.78.86,3.03.86,1.82,0,3.27-.44,4.37-1.31s1.64-2.02,1.64-3.43v-1.36Z"/><path class="cls-1" d="m400.44,72.04c-.98.29-2.1.43-3.38.43-1.18,0-2.25-.13-3.21-.38-.96-.25-1.79-.7-2.47-1.34-.69-.64-1.23-1.47-1.62-2.5-.39-1.03-.58-2.33-.58-3.91v-12.83h-3.23v-6.56h3.23v-6.92h7.67v6.92h6.36v6.56h-6.36v11.56c0,1.75.82,2.63,2.47,2.63,1.35,0,2.61-.32,3.79-.96v6.16c-.81.47-1.7.85-2.68,1.14Z"/><path class="cls-1" d="m434.09,60.2c-.02.27-.04.59-.08.96h-18.83c.37,1.75,1.14,3.07,2.3,3.96,1.16.89,2.6,1.34,4.32,1.34,1.28,0,2.42-.22,3.43-.66,1.01-.44,2.05-1.14,3.13-2.12l4.39,3.89c-1.28,1.58-2.83,2.82-4.65,3.71-1.82.89-3.96,1.34-6.41,1.34-2.02,0-3.9-.34-5.63-1.01-1.73-.67-3.23-1.63-4.49-2.88-1.26-1.25-2.25-2.72-2.95-4.42-.71-1.7-1.06-3.59-1.06-5.68v-.1c0-1.92.33-3.74.98-5.45s1.57-3.21,2.75-4.49c1.18-1.28,2.58-2.29,4.22-3.03,1.63-.74,3.44-1.11,5.43-1.11,2.25,0,4.21.4,5.86,1.21,1.65.81,3.02,1.89,4.12,3.26,1.09,1.36,1.9,2.93,2.42,4.7.52,1.77.78,3.61.78,5.53v.1c0,.37,0,.69-.03.96Zm-9.27-8c-.98-1.06-2.27-1.59-3.89-1.59s-2.92.52-3.91,1.56c-.99,1.04-1.64,2.44-1.94,4.19h11.56c-.24-1.72-.84-3.11-1.82-4.17Z"/><path class="cls-1" d="m470.22,72.21h-6.92l-5.2-16.61-5.3,16.61h-6.87l-8.33-27.27h7.78l4.34,16.41,5.1-16.51h6.61l5.15,16.56,4.44-16.46h7.62l-8.43,27.27Z"/><path class="cls-1" d="m499.15,72.01v-2.93c-.94,1.04-2.07,1.88-3.38,2.5-1.31.62-2.91.93-4.8.93-1.28,0-2.48-.18-3.61-.53s-2.11-.88-2.95-1.59c-.84-.71-1.51-1.57-2-2.6-.49-1.03-.73-2.21-.73-3.56v-.1c0-1.48.27-2.76.81-3.84.54-1.08,1.29-1.97,2.25-2.68.96-.71,2.1-1.24,3.43-1.59,1.33-.35,2.8-.53,4.42-.53,1.38,0,2.58.1,3.61.3,1.03.2,2.03.47,3,.81v-.46c0-1.62-.49-2.84-1.46-3.69-.98-.84-2.42-1.26-4.34-1.26-1.48,0-2.79.13-3.91.38-1.13.25-2.31.61-3.56,1.08l-1.92-5.86c1.48-.64,3.03-1.16,4.65-1.57,1.62-.4,3.57-.61,5.86-.61,4.21,0,7.27,1.03,9.19,3.08,1.92,2.05,2.88,4.92,2.88,8.58v15.7h-7.42Zm.15-10.91c-.67-.3-1.42-.55-2.25-.73-.83-.18-1.71-.28-2.65-.28-1.65,0-2.95.32-3.89.96s-1.41,1.57-1.41,2.78v.1c0,1.04.39,1.85,1.16,2.42.77.57,1.78.86,3.03.86,1.82,0,3.27-.44,4.37-1.31s1.64-2.02,1.64-3.43v-1.36Z"/><path class="cls-1" d="m528.54,72.67c-.5,1.38-1.04,2.55-1.62,3.51-.57.96-1.2,1.74-1.89,2.35-.69.61-1.47,1.04-2.35,1.31-.88.27-1.89.4-3.03.4-1.41,0-2.66-.17-3.74-.5-1.08-.34-2.1-.79-3.08-1.36l2.58-5.55c.5.3,1.05.56,1.64.76.59.2,1.14.3,1.64.3.67,0,1.2-.13,1.59-.38.39-.25.75-.71,1.08-1.39l-10.6-27.17h8.13l6.16,18.43,5.91-18.43h7.98l-10.4,27.72Z"/><g><path class="cls-1" d="m330.38,114.32c-2.51,1.09-5.38,1.64-8.61,1.64-2.76,0-5.28-.45-7.55-1.36-2.27-.91-4.22-2.17-5.86-3.79-1.63-1.62-2.9-3.53-3.81-5.76-.91-2.22-1.36-4.65-1.36-7.27v-.1c0-2.53.46-4.89,1.39-7.09.93-2.2,2.21-4.14,3.86-5.81,1.65-1.67,3.6-2.98,5.86-3.94,2.25-.96,4.73-1.44,7.42-1.44,1.58,0,3.02.11,4.32.33,1.29.22,2.5.53,3.61.93,1.11.4,2.15.91,3.13,1.51.98.61,1.92,1.3,2.83,2.07l-4.9,5.91c-.67-.57-1.35-1.08-2.02-1.52-.67-.44-1.37-.81-2.1-1.11s-1.51-.54-2.35-.71c-.84-.17-1.77-.25-2.78-.25-1.41,0-2.74.3-3.96.89-1.23.59-2.31,1.38-3.23,2.38-.93,1-1.65,2.16-2.17,3.49-.52,1.33-.78,2.76-.78,4.28v.1c0,1.62.26,3.11.78,4.48.52,1.37,1.26,2.56,2.22,3.57.96,1.01,2.09,1.8,3.38,2.35,1.3.56,2.73.83,4.32.83,2.89,0,5.33-.71,7.32-2.14v-5.08h-7.83v-6.72h15.35v15.35c-1.82,1.55-3.98,2.87-6.49,3.96Z"/><path class="cls-1" d="m368.75,103.54c-.02.27-.04.59-.08.96h-18.83c.37,1.75,1.14,3.07,2.3,3.96,1.16.89,2.6,1.34,4.32,1.34,1.28,0,2.42-.22,3.43-.66,1.01-.44,2.05-1.14,3.13-2.12l4.39,3.89c-1.28,1.58-2.83,2.82-4.65,3.71-1.82.89-3.96,1.34-6.41,1.34-2.02,0-3.9-.34-5.63-1.01-1.73-.67-3.23-1.63-4.49-2.88-1.26-1.25-2.25-2.72-2.95-4.42-.71-1.7-1.06-3.59-1.06-5.68v-.1c0-1.92.33-3.74.98-5.45s1.57-3.21,2.75-4.49c1.18-1.28,2.58-2.29,4.22-3.03,1.63-.74,3.44-1.11,5.43-1.11,2.25,0,4.21.4,5.86,1.21,1.65.81,3.02,1.89,4.12,3.26,1.09,1.36,1.9,2.93,2.42,4.7.52,1.77.78,3.61.78,5.53v.1c0,.37,0,.69-.03.96Zm-9.27-8c-.98-1.06-2.27-1.59-3.89-1.59s-2.92.52-3.91,1.56c-.99,1.04-1.64,2.44-1.94,4.19h11.56c-.24-1.72-.84-3.11-1.82-4.17Z"/><path class="cls-1" d="m401.35,107.35c-.74,1.7-1.77,3.19-3.08,4.47-1.31,1.28-2.86,2.29-4.65,3.03-1.79.74-3.74,1.11-5.86,1.11s-4.02-.36-5.81-1.08c-1.79-.72-3.33-1.72-4.62-2.98s-2.31-2.74-3.05-4.44c-.74-1.7-1.11-3.53-1.11-5.48v-.1c0-1.95.37-3.78,1.11-5.48.74-1.7,1.77-3.19,3.08-4.47,1.31-1.28,2.86-2.29,4.65-3.03,1.78-.74,3.74-1.11,5.86-1.11s4.02.36,5.81,1.09c1.78.72,3.32,1.72,4.62,2.98,1.29,1.26,2.31,2.74,3.05,4.44.74,1.7,1.11,3.53,1.11,5.48v.1c0,1.95-.37,3.78-1.11,5.48Zm-6.46-5.48c0-1.01-.17-1.96-.5-2.85-.34-.89-.83-1.68-1.46-2.37-.64-.69-1.4-1.24-2.27-1.64-.88-.4-1.83-.61-2.88-.61-1.11,0-2.1.19-2.95.58-.86.39-1.59.92-2.2,1.59-.61.67-1.07,1.46-1.39,2.35-.32.89-.48,1.84-.48,2.85v.1c0,1.01.17,1.96.5,2.85.34.89.82,1.68,1.46,2.37.64.69,1.39,1.24,2.25,1.64.86.4,1.83.61,2.9.61s2.1-.19,2.95-.58c.86-.39,1.59-.92,2.2-1.59.61-.67,1.07-1.46,1.39-2.35.32-.89.48-1.84.48-2.85v-.1Z"/><path class="cls-1" d="m427.07,111.03c-.52,1.09-1.25,2-2.2,2.7-.94.71-2.04,1.24-3.31,1.59-1.26.35-2.62.53-4.06.53-1.92,0-3.88-.33-5.88-.98s-3.91-1.69-5.73-3.11l3.28-5.05c1.48,1.08,2.95,1.89,4.42,2.42,1.46.54,2.83.81,4.12.81,1.11,0,1.93-.18,2.45-.55s.78-.86.78-1.46v-.1c0-.4-.15-.76-.46-1.06-.3-.3-.71-.56-1.24-.78-.52-.22-1.12-.43-1.79-.63-.67-.2-1.38-.42-2.12-.66-.94-.27-1.89-.6-2.85-.98s-1.83-.89-2.6-1.51-1.41-1.39-1.89-2.3c-.49-.91-.73-2.02-.73-3.33v-.1c0-1.38.26-2.6.78-3.66.52-1.06,1.23-1.96,2.12-2.7.89-.74,1.93-1.3,3.13-1.67s2.48-.56,3.86-.56c1.72,0,3.46.28,5.23.83,1.77.56,3.39,1.32,4.87,2.3l-2.93,5.3c-1.35-.77-2.66-1.39-3.94-1.84-1.28-.45-2.41-.68-3.38-.68s-1.65.18-2.12.53c-.47.35-.71.8-.71,1.34v.1c0,.37.15.7.46.98.3.29.71.56,1.21.81.5.25,1.08.5,1.74.73.66.24,1.36.47,2.1.71.94.3,1.9.67,2.88,1.09s1.85.93,2.63,1.54c.77.61,1.41,1.35,1.92,2.22.5.88.76,1.94.76,3.18v.1c0,1.51-.26,2.82-.78,3.91Z"/><path class="cls-1" d="m460.75,107.85c-.69,1.73-1.6,3.2-2.73,4.39-1.13,1.2-2.43,2.1-3.91,2.7-1.48.61-3.03.91-4.65.91-2.05,0-3.75-.4-5.07-1.2-1.33-.8-2.45-1.74-3.36-2.81v11.58h-7.67v-35.14h7.67v3.85c.94-1.27,2.08-2.31,3.41-3.13,1.33-.82,3-1.23,5.02-1.23,1.58,0,3.11.3,4.6.91,1.48.61,2.79,1.51,3.94,2.7,1.14,1.2,2.06,2.66,2.75,4.39.69,1.73,1.04,3.73,1.04,5.98v.1c0,2.26-.35,4.25-1.04,5.98Zm-6.64-6.08c0-1.12-.18-2.14-.53-3.08s-.83-1.73-1.44-2.39c-.61-.66-1.31-1.17-2.1-1.52-.79-.36-1.64-.53-2.55-.53s-1.76.18-2.55.53c-.79.36-1.48.86-2.07,1.52-.59.66-1.06,1.46-1.41,2.39s-.53,1.96-.53,3.08v.1c0,1.12.18,2.14.53,3.08.35.93.82,1.73,1.41,2.39.59.66,1.28,1.17,2.07,1.53.79.36,1.64.53,2.55.53s1.76-.18,2.55-.53c.79-.36,1.49-.86,2.1-1.53.61-.66,1.08-1.45,1.44-2.36s.53-1.95.53-3.1v-.1Z"/><path class="cls-1" d="m483.3,115.35v-2.93c-.94,1.04-2.07,1.88-3.38,2.5-1.31.62-2.91.93-4.8.93-1.28,0-2.48-.18-3.61-.53s-2.11-.88-2.95-1.59c-.84-.71-1.51-1.57-2-2.6-.49-1.03-.73-2.21-.73-3.56v-.1c0-1.48.27-2.76.81-3.84.54-1.08,1.29-1.97,2.25-2.68.96-.71,2.1-1.24,3.43-1.59,1.33-.35,2.8-.53,4.42-.53,1.38,0,2.58.1,3.61.3,1.03.2,2.03.47,3,.81v-.46c0-1.62-.49-2.84-1.46-3.69-.98-.84-2.42-1.26-4.34-1.26-1.48,0-2.79.13-3.91.38-1.13.25-2.31.61-3.56,1.08l-1.92-5.86c1.48-.64,3.03-1.16,4.65-1.57,1.62-.4,3.57-.61,5.86-.61,4.21,0,7.27,1.03,9.19,3.08,1.92,2.05,2.88,4.92,2.88,8.58v15.7h-7.42Zm.15-10.91c-.67-.3-1.42-.55-2.25-.73-.83-.18-1.71-.28-2.65-.28-1.65,0-2.95.32-3.89.96s-1.41,1.57-1.41,2.78v.1c0,1.04.39,1.85,1.16,2.42.77.57,1.78.86,3.03.86,1.82,0,3.27-.44,4.37-1.31s1.64-2.02,1.64-3.43v-1.36Z"/><path class="cls-1" d="m509.86,115.38c-.98.29-2.1.43-3.38.43-1.18,0-2.25-.13-3.21-.38-.96-.25-1.79-.7-2.47-1.34-.69-.64-1.23-1.47-1.62-2.5-.39-1.03-.58-2.33-.58-3.91v-12.83h-3.23v-6.56h3.23v-6.92h7.67v6.92h6.36v6.56h-6.36v11.56c0,1.75.82,2.63,2.47,2.63,1.35,0,2.61-.32,3.79-.96v6.16c-.81.47-1.7.85-2.68,1.14Z"/><path class="cls-1" d="m549.4,115.35v-2.93c-.94,1.04-2.07,1.88-3.38,2.5-1.31.62-2.91.93-4.8.93-1.28,0-2.48-.18-3.61-.53s-2.11-.88-2.95-1.59c-.84-.71-1.51-1.57-2-2.6-.49-1.03-.73-2.21-.73-3.56v-.1c0-1.48.27-2.76.81-3.84.54-1.08,1.29-1.97,2.25-2.68.96-.71,2.1-1.24,3.43-1.59,1.33-.35,2.8-.53,4.42-.53,1.38,0,2.58.1,3.61.3,1.03.2,2.03.47,3,.81v-.46c0-1.62-.49-2.84-1.46-3.69-.98-.84-2.42-1.26-4.34-1.26-1.48,0-2.79.13-3.91.38-1.13.25-2.31.61-3.56,1.08l-1.92-5.86c1.48-.64,3.03-1.16,4.65-1.57,1.62-.4,3.57-.61,5.86-.61,4.21,0,7.27,1.03,9.19,3.08,1.92,2.05,2.88,4.92,2.88,8.58v15.7h-7.42Zm.15-10.91c-.67-.3-1.42-.55-2.25-.73-.83-.18-1.71-.28-2.65-.28-1.65,0-2.95.32-3.89.96s-1.41,1.57-1.41,2.78v.1c0,1.04.39,1.85,1.16,2.42.77.57,1.78.86,3.03.86,1.82,0,3.27-.44,4.37-1.31s1.64-2.02,1.64-3.43v-1.36Z"/><path class="cls-1" d="m563.79,115.35v-36.86h7.67v36.86h-7.67Z"/></g><g><path class="cls-1" d="m316.04,157.66c-2.51,1.09-5.38,1.64-8.61,1.64-2.76,0-5.28-.45-7.55-1.36-2.27-.91-4.22-2.17-5.86-3.79-1.63-1.62-2.9-3.53-3.81-5.76-.91-2.22-1.36-4.65-1.36-7.27v-.1c0-2.53.46-4.89,1.39-7.09.93-2.2,2.21-4.14,3.86-5.81,1.65-1.67,3.6-2.98,5.86-3.94,2.25-.96,4.73-1.44,7.42-1.44,1.58,0,3.02.11,4.32.33,1.29.22,2.5.53,3.61.93,1.11.4,2.15.91,3.13,1.51.98.61,1.92,1.3,2.83,2.07l-4.9,5.91c-.67-.57-1.35-1.08-2.02-1.52-.67-.44-1.37-.81-2.1-1.11s-1.51-.54-2.35-.71c-.84-.17-1.77-.25-2.78-.25-1.41,0-2.74.3-3.96.89-1.23.59-2.31,1.38-3.23,2.38-.93,1-1.65,2.16-2.17,3.49-.52,1.33-.78,2.76-.78,4.28v.1c0,1.62.26,3.11.78,4.48.52,1.37,1.26,2.56,2.22,3.57.96,1.01,2.09,1.8,3.38,2.35,1.3.56,2.73.83,4.32.83,2.89,0,5.33-.71,7.32-2.14v-5.08h-7.83v-6.72h15.35v15.35c-1.82,1.55-3.98,2.87-6.49,3.96Z"/><path class="cls-1" d="m345.1,139.15c-2.56,0-4.57.77-6.03,2.32-1.46,1.55-2.2,3.96-2.2,7.22v10h-7.67v-27.07h7.67v5.45c.77-1.85,1.83-3.33,3.18-4.44,1.35-1.11,3.16-1.62,5.45-1.52v8.03h-.4Z"/><path class="cls-1" d="m377.16,150.69c-.74,1.7-1.77,3.19-3.08,4.47-1.31,1.28-2.86,2.29-4.65,3.03-1.79.74-3.74,1.11-5.86,1.11s-4.02-.36-5.81-1.08c-1.79-.72-3.33-1.72-4.62-2.98s-2.31-2.74-3.05-4.44c-.74-1.7-1.11-3.53-1.11-5.48v-.1c0-1.95.37-3.78,1.11-5.48.74-1.7,1.77-3.19,3.08-4.47,1.31-1.28,2.86-2.29,4.65-3.03,1.78-.74,3.74-1.11,5.86-1.11s4.02.36,5.81,1.09c1.78.72,3.32,1.72,4.62,2.98,1.29,1.26,2.31,2.74,3.05,4.44.74,1.7,1.11,3.53,1.11,5.48v.1c0,1.95-.37,3.78-1.11,5.48Zm-6.46-5.48c0-1.01-.17-1.96-.5-2.85-.34-.89-.83-1.68-1.46-2.37-.64-.69-1.4-1.24-2.27-1.64-.88-.4-1.83-.61-2.88-.61-1.11,0-2.1.19-2.95.58-.86.39-1.59.92-2.2,1.59-.61.67-1.07,1.46-1.39,2.35-.32.89-.48,1.84-.48,2.85v.1c0,1.01.17,1.96.5,2.85.34.89.82,1.68,1.46,2.37.64.69,1.39,1.24,2.25,1.64.86.4,1.83.61,2.9.61s2.1-.19,2.95-.58c.86-.39,1.59-.92,2.2-1.59.61-.67,1.07-1.46,1.39-2.35.32-.89.48-1.84.48-2.85v-.1Z"/><path class="cls-1" d="m400.74,158.69v-3.87c-.44.58-.92,1.13-1.44,1.65-.52.53-1.1.99-1.74,1.4s-1.35.73-2.12.97c-.77.24-1.65.36-2.62.36-2.93,0-5.19-.89-6.79-2.68s-2.4-4.24-2.4-7.37v-17.52h7.68v15.06c0,1.81.4,3.18,1.21,4.11.81.92,1.95,1.38,3.43,1.38s2.65-.46,3.51-1.38,1.29-2.29,1.29-4.11v-15.06h7.67v27.07h-7.67Z"/><path class="cls-1" d="m442.68,151.19c-.69,1.73-1.6,3.2-2.73,4.39-1.13,1.2-2.43,2.1-3.91,2.7-1.48.61-3.03.91-4.65.91-2.05,0-3.75-.4-5.07-1.2-1.33-.8-2.45-1.74-3.36-2.81v11.58h-7.67v-35.14h7.67v3.85c.94-1.27,2.08-2.31,3.41-3.13,1.33-.82,3-1.23,5.02-1.23,1.58,0,3.11.3,4.6.91,1.48.61,2.79,1.51,3.94,2.7,1.14,1.2,2.06,2.66,2.75,4.39.69,1.73,1.04,3.73,1.04,5.98v.1c0,2.26-.35,4.25-1.04,5.98Zm-6.64-6.08c0-1.12-.18-2.14-.53-3.08s-.83-1.73-1.44-2.39c-.61-.66-1.31-1.17-2.1-1.52-.79-.36-1.64-.53-2.55-.53s-1.76.18-2.55.53c-.79.36-1.48.86-2.07,1.52-.59.66-1.06,1.46-1.41,2.39s-.53,1.96-.53,3.08v.1c0,1.12.18,2.14.53,3.08.35.93.82,1.73,1.41,2.39.59.66,1.28,1.17,2.07,1.53.79.36,1.64.53,2.55.53s1.76-.18,2.55-.53c.79-.36,1.49-.86,2.1-1.53.61-.66,1.08-1.45,1.44-2.36s.53-1.95.53-3.1v-.1Z"/></g></g><g><path class="cls-2" d="m80.33,37.13h205.57s-39.79,120.14-39.79,120.14H40.54s39.79-120.14,39.79-120.14m-2.17-3l-.68,2.06-39.79,120.14-1.31,3.94h4.15s205.57,0,205.57,0h2.17s.68-2.06.68-2.06l39.79-120.14,1.31-3.94h-4.15s-205.57,0-205.57,0h-2.17Z"/><polygon class="cls-1" points="195.16 47.15 187.87 69.17 79.99 69.17 87.29 47.15 195.16 47.15"/><polygon class="cls-1" points="114.46 86.18 182.24 86.18 162.01 147.26 54.13 147.25 74.36 86.19 96.97 86.19 84.04 125.23 146.69 125.23 152.33 108.21 107.16 108.21 114.46 86.18"/><polygon class="cls-2" points="272.23 47.15 264.93 69.18 205.34 69.17 212.64 47.15 272.23 47.15"/><polygon class="cls-2" points="246.46 125.23 239.16 147.26 179.48 147.26 186.78 125.23 223.82 125.23 229.46 108.21 203.42 108.21 210.72 86.18 259.37 86.18 246.44 125.23 246.46 125.23"/></g><path class="cls-1" d="m518.39,89.16v-6.82h8.08v6.82h-8.08Zm.2,26.18v-23.2h7.67v23.2h-7.67Z"/></svg>